<svg width="60" height="20" viewBox="0 0 60 20" fill="none" xmlns="http://www.w3.org/2000/svg">
<g clip-path="url(#clip0_387_137)">
<path d="M59.894 15.1772C60.2018 15.9463 59.8278 16.8193 59.0587 17.1271C58.2896 17.4349 57.4166 17.061 57.1088 16.2918L58.5014 15.7345L59.894 15.1772ZM1.19305 17.2026C0.382191 17.0329 -0.137583 16.238 0.0321083 15.4272L2.79737 2.2134C2.96706 1.4026 3.76196 0.882798 4.57282 1.0525C5.38368 1.2222 5.90345 2.0171 5.73376 2.8279L3.27575 14.5735L15.0213 17.0315C15.8322 17.2012 16.352 17.9961 16.1823 18.8069C16.0126 19.6178 15.2177 20.1376 14.4068 19.9679L1.19305 17.2026ZM58.5014 15.7345C57.1088 16.2918 57.109 16.2925 57.1093 16.2931C57.1093 16.2933 57.1096 16.2939 57.1097 16.2942C57.11 16.2949 57.1102 16.2954 57.1103 16.2957C57.1105 16.2962 57.1106 16.2964 57.1103 16.2957C57.1099 16.2947 57.1087 16.2917 57.1063 16.2861C57.1016 16.2749 57.093 16.2545 57.0802 16.2255C57.0547 16.1675 57.0127 16.075 56.9531 15.952C56.8339 15.7059 56.6441 15.3381 56.3736 14.8802C55.8322 13.9637 54.9701 12.6907 53.7061 11.3093C51.1853 8.5544 47.0536 5.3532 40.6228 3.6859L40.9992 2.2339L41.3757 0.781998C48.4447 2.6147 53.0641 6.1637 55.9194 9.2841C57.3435 10.8404 58.3257 12.2863 58.9566 13.3543C59.2722 13.8886 59.5006 14.3295 59.6529 14.6439C59.7291 14.8012 59.7864 14.927 59.8261 15.0172C59.8459 15.0623 59.8614 15.0985 59.8727 15.1253C59.8783 15.1388 59.8829 15.1498 59.8864 15.1585C59.8882 15.1628 59.8897 15.1666 59.891 15.1697C59.8916 15.1712 59.8922 15.1726 59.8927 15.1739C59.8929 15.1745 59.8933 15.1753 59.8934 15.1757C59.8937 15.1764 59.894 15.1772 58.5014 15.7345ZM40.9992 2.2339L40.6228 3.6859C37.609 2.9046 33.7447 3.2426 29.5016 4.3207C25.29 5.3907 20.8678 7.1468 16.8205 9.0315C12.7795 10.9133 9.14923 12.9059 6.52729 14.4297C5.21739 15.191 4.16175 15.8337 3.43536 16.2849C3.07222 16.5105 2.79154 16.6882 2.60268 16.8087C2.50826 16.869 2.43681 16.915 2.3895 16.9456C2.36585 16.9608 2.34824 16.9723 2.33681 16.9797C2.33109 16.9834 2.32692 16.9861 2.32431 16.9878C2.32301 16.9887 2.3221 16.9893 2.32159 16.9896C2.32172 16.9895 2.32133 16.9898 2.32159 16.9896C2.3216 16.9896 2.32121 16.9899 1.5003 15.7344C0.679395 14.479 0.679695 14.4788 0.680098 14.4785C0.680364 14.4784 0.680865 14.478 0.6814 14.4777C0.682463 14.477 0.683923 14.476 0.685776 14.4748C0.689483 14.4724 0.694761 14.469 0.701594 14.4645C0.715259 14.4557 0.73514 14.4428 0.76109 14.426C0.812994 14.3924 0.889185 14.3434 0.98848 14.28C1.18706 14.1532 1.47813 13.9691 1.85227 13.7366C2.60044 13.2718 3.68145 12.6137 5.01989 11.8359C7.69464 10.2814 11.4079 8.2427 15.5541 6.3119C19.6941 4.384 24.3029 2.5462 28.7629 1.413C33.1915 0.287798 37.6396 -0.186702 41.3757 0.781998L40.9992 2.2339Z" fill="#0D6EFD"/>
</g>
<defs>
<clipPath id="clip0_387_137">
<rect width="60" height="20" fill="white" transform="matrix(1 0 0 -1 0 20)"/>
</clipPath>
</defs>
</svg>
